<mxfile host="app.diagrams.net" modified="2023-04-04T19:41:08.375Z" agent="Mozilla/5.0 (Windows NT 10.0; Win64; x64) AppleWebKit/537.36 (KHTML, like Gecko) Chrome/111.0.0.0 Safari/537.36" etag="k8ZSedrag065UeRIrZgD" version="21.1.4" type="device">
  <diagram name="Page-1" id="qvYzs6t46P7FC7-1YxF7">
    <mxGraphModel dx="2345" dy="1056" grid="1" gridSize="10" guides="1" tooltips="1" connect="1" arrows="1" fold="1" page="1" pageScale="1" pageWidth="827" pageHeight="1169" math="0" shadow="0">
      <root>
        <mxCell id="0" />
        <mxCell id="1" parent="0" />
        <mxCell id="0B0PwJDguVcrArWVIy0z-6" style="edgeStyle=orthogonalEdgeStyle;rounded=0;orthogonalLoop=1;jettySize=auto;html=1;exitX=1;exitY=0.5;exitDx=0;exitDy=0;" parent="1" source="0B0PwJDguVcrArWVIy0z-1" target="0B0PwJDguVcrArWVIy0z-3" edge="1">
          <mxGeometry relative="1" as="geometry" />
        </mxCell>
        <mxCell id="0B0PwJDguVcrArWVIy0z-1" value="&lt;font style=&quot;font-size: 18px;&quot;&gt;Reading CSV Flie&lt;/font&gt;" style="rounded=0;whiteSpace=wrap;html=1;" parent="1" vertex="1">
          <mxGeometry x="40" y="80" width="160" height="80" as="geometry" />
        </mxCell>
        <mxCell id="0B0PwJDguVcrArWVIy0z-8" style="edgeStyle=orthogonalEdgeStyle;rounded=0;orthogonalLoop=1;jettySize=auto;html=1;exitX=1;exitY=0.5;exitDx=0;exitDy=0;entryX=0;entryY=0.5;entryDx=0;entryDy=0;" parent="1" source="0B0PwJDguVcrArWVIy0z-2" target="0B0PwJDguVcrArWVIy0z-3" edge="1">
          <mxGeometry relative="1" as="geometry" />
        </mxCell>
        <mxCell id="0B0PwJDguVcrArWVIy0z-2" value="&lt;font style=&quot;font-size: 18px;&quot;&gt;Label Encoding&lt;/font&gt;" style="rounded=0;whiteSpace=wrap;html=1;" parent="1" vertex="1">
          <mxGeometry x="40" y="200" width="160" height="80" as="geometry" />
        </mxCell>
        <mxCell id="0B0PwJDguVcrArWVIy0z-9" style="edgeStyle=orthogonalEdgeStyle;rounded=0;orthogonalLoop=1;jettySize=auto;html=1;exitX=1;exitY=0.5;exitDx=0;exitDy=0;entryX=0;entryY=0.5;entryDx=0;entryDy=0;" parent="1" source="0B0PwJDguVcrArWVIy0z-3" target="0B0PwJDguVcrArWVIy0z-4" edge="1">
          <mxGeometry relative="1" as="geometry" />
        </mxCell>
        <mxCell id="0B0PwJDguVcrArWVIy0z-3" value="&lt;font style=&quot;font-size: 18px;&quot;&gt;Initialization&lt;/font&gt;" style="rounded=1;whiteSpace=wrap;html=1;" parent="1" vertex="1">
          <mxGeometry x="280" y="140" width="120" height="80" as="geometry" />
        </mxCell>
        <mxCell id="0B0PwJDguVcrArWVIy0z-11" style="edgeStyle=orthogonalEdgeStyle;rounded=0;orthogonalLoop=1;jettySize=auto;html=1;exitX=1;exitY=0.5;exitDx=0;exitDy=0;entryX=0;entryY=0.5;entryDx=0;entryDy=0;" parent="1" source="0B0PwJDguVcrArWVIy0z-4" target="0B0PwJDguVcrArWVIy0z-10" edge="1">
          <mxGeometry relative="1" as="geometry" />
        </mxCell>
        <mxCell id="0B0PwJDguVcrArWVIy0z-4" value="&lt;font style=&quot;font-size: 18px;&quot;&gt;Graph Visualization&lt;/font&gt;" style="rounded=1;whiteSpace=wrap;html=1;" parent="1" vertex="1">
          <mxGeometry x="450" y="140" width="120" height="80" as="geometry" />
        </mxCell>
        <mxCell id="0B0PwJDguVcrArWVIy0z-13" style="edgeStyle=orthogonalEdgeStyle;rounded=0;orthogonalLoop=1;jettySize=auto;html=1;exitX=0.5;exitY=1;exitDx=0;exitDy=0;" parent="1" source="0B0PwJDguVcrArWVIy0z-10" target="0B0PwJDguVcrArWVIy0z-12" edge="1">
          <mxGeometry relative="1" as="geometry" />
        </mxCell>
        <mxCell id="0B0PwJDguVcrArWVIy0z-10" value="&lt;font style=&quot;font-size: 18px;&quot;&gt;Labelling&lt;/font&gt;" style="rounded=1;whiteSpace=wrap;html=1;" parent="1" vertex="1">
          <mxGeometry x="640" y="140" width="120" height="80" as="geometry" />
        </mxCell>
        <mxCell id="0B0PwJDguVcrArWVIy0z-23" style="edgeStyle=orthogonalEdgeStyle;rounded=0;orthogonalLoop=1;jettySize=auto;html=1;exitX=0.5;exitY=1;exitDx=0;exitDy=0;entryX=0.5;entryY=0;entryDx=0;entryDy=0;" parent="1" source="0B0PwJDguVcrArWVIy0z-12" target="0B0PwJDguVcrArWVIy0z-21" edge="1">
          <mxGeometry relative="1" as="geometry">
            <Array as="points">
              <mxPoint x="400" y="480" />
            </Array>
          </mxGeometry>
        </mxCell>
        <mxCell id="0B0PwJDguVcrArWVIy0z-24" style="edgeStyle=orthogonalEdgeStyle;rounded=0;orthogonalLoop=1;jettySize=auto;html=1;exitX=0.5;exitY=1;exitDx=0;exitDy=0;entryX=0.5;entryY=0;entryDx=0;entryDy=0;" parent="1" source="0B0PwJDguVcrArWVIy0z-12" target="0B0PwJDguVcrArWVIy0z-20" edge="1">
          <mxGeometry relative="1" as="geometry">
            <Array as="points">
              <mxPoint x="400" y="420" />
              <mxPoint x="140" y="420" />
            </Array>
          </mxGeometry>
        </mxCell>
        <mxCell id="0B0PwJDguVcrArWVIy0z-25" style="edgeStyle=orthogonalEdgeStyle;rounded=0;orthogonalLoop=1;jettySize=auto;html=1;exitX=0.5;exitY=1;exitDx=0;exitDy=0;entryX=0.5;entryY=0;entryDx=0;entryDy=0;" parent="1" source="0B0PwJDguVcrArWVIy0z-12" target="0B0PwJDguVcrArWVIy0z-22" edge="1">
          <mxGeometry relative="1" as="geometry">
            <Array as="points">
              <mxPoint x="400" y="420" />
              <mxPoint x="660" y="420" />
              <mxPoint x="660" y="480" />
            </Array>
          </mxGeometry>
        </mxCell>
        <mxCell id="0B0PwJDguVcrArWVIy0z-12" value="&lt;font style=&quot;font-size: 18px;&quot;&gt;Sampling&lt;/font&gt;" style="rounded=1;whiteSpace=wrap;html=1;" parent="1" vertex="1">
          <mxGeometry x="337.5" y="300" width="125" height="80" as="geometry" />
        </mxCell>
        <mxCell id="0B0PwJDguVcrArWVIy0z-27" style="edgeStyle=orthogonalEdgeStyle;rounded=0;orthogonalLoop=1;jettySize=auto;html=1;exitX=0.5;exitY=1;exitDx=0;exitDy=0;" parent="1" source="0B0PwJDguVcrArWVIy0z-20" target="0B0PwJDguVcrArWVIy0z-26" edge="1">
          <mxGeometry relative="1" as="geometry">
            <Array as="points">
              <mxPoint x="140" y="620" />
              <mxPoint x="400" y="620" />
            </Array>
          </mxGeometry>
        </mxCell>
        <mxCell id="imlcuxd3N9aKE7dN1fp8-1" style="edgeStyle=orthogonalEdgeStyle;rounded=0;orthogonalLoop=1;jettySize=auto;html=1;exitX=1;exitY=0.5;exitDx=0;exitDy=0;entryX=0;entryY=0.5;entryDx=0;entryDy=0;" parent="1" source="0B0PwJDguVcrArWVIy0z-20" target="0B0PwJDguVcrArWVIy0z-21" edge="1">
          <mxGeometry relative="1" as="geometry" />
        </mxCell>
        <mxCell id="0B0PwJDguVcrArWVIy0z-20" value="&lt;font style=&quot;font-size: 18px;&quot;&gt;Initialized graph&lt;/font&gt;" style="rounded=1;whiteSpace=wrap;html=1;" parent="1" vertex="1">
          <mxGeometry x="80" y="480" width="120" height="80" as="geometry" />
        </mxCell>
        <mxCell id="0B0PwJDguVcrArWVIy0z-28" style="edgeStyle=orthogonalEdgeStyle;rounded=0;orthogonalLoop=1;jettySize=auto;html=1;exitX=0.5;exitY=1;exitDx=0;exitDy=0;entryX=0.5;entryY=0;entryDx=0;entryDy=0;" parent="1" source="0B0PwJDguVcrArWVIy0z-21" target="0B0PwJDguVcrArWVIy0z-26" edge="1">
          <mxGeometry relative="1" as="geometry">
            <mxPoint x="510" y="440" as="targetPoint" />
          </mxGeometry>
        </mxCell>
        <mxCell id="0B0PwJDguVcrArWVIy0z-21" value="&lt;font style=&quot;font-size: 18px;&quot;&gt;Graph without busy road&lt;/font&gt;" style="rounded=1;whiteSpace=wrap;html=1;" parent="1" vertex="1">
          <mxGeometry x="337.5" y="480" width="125" height="80" as="geometry" />
        </mxCell>
        <mxCell id="0B0PwJDguVcrArWVIy0z-29" style="edgeStyle=orthogonalEdgeStyle;rounded=0;orthogonalLoop=1;jettySize=auto;html=1;exitX=0.5;exitY=1;exitDx=0;exitDy=0;entryX=0.5;entryY=0;entryDx=0;entryDy=0;" parent="1" source="0B0PwJDguVcrArWVIy0z-22" target="0B0PwJDguVcrArWVIy0z-26" edge="1">
          <mxGeometry relative="1" as="geometry">
            <Array as="points">
              <mxPoint x="660" y="620" />
              <mxPoint x="400" y="620" />
            </Array>
          </mxGeometry>
        </mxCell>
        <mxCell id="0B0PwJDguVcrArWVIy0z-22" value="&lt;font style=&quot;font-size: 18px;&quot;&gt;Graph with 3/5&lt;sup style=&quot;background-color: initial;&quot;&gt;th&lt;/sup&gt;&lt;span style=&quot;background-color: initial;&quot;&gt; of roads&lt;/span&gt;&lt;/font&gt;&lt;sup style=&quot;background-color: initial;&quot;&gt;&lt;br&gt;&lt;/sup&gt;&lt;p class=&quot;MsoNormal&quot;&gt; &lt;/p&gt;" style="rounded=1;whiteSpace=wrap;html=1;" parent="1" vertex="1">
          <mxGeometry x="600" y="480" width="120" height="80" as="geometry" />
        </mxCell>
        <mxCell id="imlcuxd3N9aKE7dN1fp8-20" style="edgeStyle=orthogonalEdgeStyle;rounded=0;orthogonalLoop=1;jettySize=auto;html=1;exitX=0.5;exitY=1;exitDx=0;exitDy=0;entryX=0.5;entryY=0;entryDx=0;entryDy=0;" parent="1" source="0B0PwJDguVcrArWVIy0z-26" target="imlcuxd3N9aKE7dN1fp8-22" edge="1">
          <mxGeometry relative="1" as="geometry">
            <mxPoint x="400" y="760" as="targetPoint" />
          </mxGeometry>
        </mxCell>
        <mxCell id="0B0PwJDguVcrArWVIy0z-26" value="&lt;font style=&quot;font-size: 20px;&quot;&gt;Analysis&lt;/font&gt;" style="rhombus;whiteSpace=wrap;html=1;" parent="1" vertex="1">
          <mxGeometry x="330" y="740" width="140" height="140" as="geometry" />
        </mxCell>
        <mxCell id="imlcuxd3N9aKE7dN1fp8-12" style="edgeStyle=orthogonalEdgeStyle;rounded=0;orthogonalLoop=1;jettySize=auto;html=1;exitX=1;exitY=0.5;exitDx=0;exitDy=0;entryX=0;entryY=0.5;entryDx=0;entryDy=0;" parent="1" source="imlcuxd3N9aKE7dN1fp8-11" target="0B0PwJDguVcrArWVIy0z-26" edge="1">
          <mxGeometry relative="1" as="geometry" />
        </mxCell>
        <mxCell id="imlcuxd3N9aKE7dN1fp8-11" value="&lt;p style=&quot;line-height: 320%;&quot;&gt;&lt;font style=&quot;font-size: 14px;&quot;&gt;dismat()&lt;br&gt;nxtnodli()&lt;br&gt;lucacc()&lt;br&gt;accshphos()&lt;br&gt;busrod()&lt;br&gt;moshos()&lt;/font&gt;&lt;/p&gt;" style="rounded=0;whiteSpace=wrap;html=1;" parent="1" vertex="1">
          <mxGeometry x="55" y="690" width="160" height="240" as="geometry" />
        </mxCell>
        <mxCell id="imlcuxd3N9aKE7dN1fp8-18" value="&lt;h1 style=&quot;&quot;&gt;&lt;span style=&quot;font-size: 18px;&quot;&gt;ALGORITHMS&lt;/span&gt;&lt;/h1&gt;" style="text;html=1;strokeColor=none;fillColor=none;spacing=5;spacingTop=-20;whiteSpace=wrap;overflow=hidden;rounded=0;align=center;" parent="1" vertex="1">
          <mxGeometry x="40" y="650" width="190" height="120" as="geometry" />
        </mxCell>
        <mxCell id="imlcuxd3N9aKE7dN1fp8-22" value="&lt;font style=&quot;font-size: 18px;&quot;&gt;Results &amp;amp; Inferences&lt;/font&gt;" style="rounded=1;whiteSpace=wrap;html=1;" parent="1" vertex="1">
          <mxGeometry x="320" y="1020" width="160" height="100" as="geometry" />
        </mxCell>
        <mxCell id="TyxZk6f3v0WORe0QAhJW-1" value="&lt;i&gt;&lt;font style=&quot;font-size: 18px;&quot; face=&quot;Times New Roman&quot;&gt;busrod()&lt;/font&gt;&lt;/i&gt;" style="text;html=1;align=center;verticalAlign=middle;resizable=0;points=[];autosize=1;strokeColor=none;fillColor=none;fontStyle=1;labelBackgroundColor=default;" parent="1" vertex="1">
          <mxGeometry x="225" y="485" width="90" height="40" as="geometry" />
        </mxCell>
      </root>
    </mxGraphModel>
  </diagram>
</mxfile>
